<svg width="36" height="36" fill="none" xmlns="http://www.w3.org/2000/svg"><path fill-rule="evenodd" clip-rule="evenodd" d="M15 4.108A7.811 7.811 0 008.63 1.36c-2.934.147-5.348 1.838-6.657 4.238a.75.75 0 101.317.718c1.079-1.978 3.043-3.34 5.416-3.458a6.312 6.312 0 015.081 2.14h-1.686a.75.75 0 000 1.5H16.5V2.1a.75.75 0 00-1.5 0v2.008zM1.5 11.506h4.399a.75.75 0 010 1.5h-1.68a6.312 6.312 0 005.075 2.133c2.384-.12 4.401-1.488 5.408-3.442a.75.75 0 011.333.687c-1.249 2.424-3.742 4.107-6.666 4.253A7.812 7.812 0 013 13.889v2.016a.75.75 0 01-1.5 0v-4.4zM12.5 25.5a5 5 0 11-10 0 5 5 0 0110 0zM1 25.5a6.5 6.5 0 0010.436 5.173l4.075 4.072a.872.872 0 001.234-.002.876.876 0 00-.002-1.237l-4.071-4.068A6.5 6.5 0 101 25.5z" fill="#121212"/></svg>